PathFileType	4	(X/Y/Z)	C:/Users/beibeiliu/ov580/test_trc\sequence.10_training_dense_left.trc
DataRate	CameraRate	NumFrames	NumMarkers	Units	OrigDataRate	OrigDataStartFrame	OrigNumFrames
120	120	16	19	mm	120	55	82
Frame#	Time	ThumbCMC			ThumbMCP			ThumbIP			ThumbTip			IndexMCP			IndexPIP			IndexTip			MiddleMCP			MiddlePIP			MiddleTip			RingMCP			RingPIP			RingTip			PinkyMCP			PinkyPIP			PinkyTip			BackHand1			BackHand2			BackHand3	
		X0	Y0	Z0	X1	Y1	Z1	X2	Y2	Z2	X3	Y3	Z3	X4	Y4	Z4	X5	Y5	Z5	X6	Y6	Z6	X7	Y7	Z7	X8	Y8	Z8	X9	Y9	Z9	X10	Y10	Z10	X11	Y11	Z11	X12	Y12	Z12	X13	Y13	Z13	X14	Y14	Z14	X15	Y15	Z15	X16	Y16	Z16	X17	Y17	Z17	X18	Y18	Z18	
54	0.45	-188.111	41.2943	36.1358	-174.267	62.2381	23.1636	-153.892	71.214	7.93486	-132.284	70.8316	4.31717	-151.822	41.7102	-16.7015	-136.052	58.2934	-32.4921	-124.602	72.2241	-39.3603	-127.974	42.5185	-2.47727	-123.392	67.8815	14.4226	-144.496	59	36.2426	-119.355	36.9764	15.9409	-123.886	56.433	36.1708	-145.705	44.7465	44.0231	-114.127	31.6518	28.1453	-123.347	48.2681	41.9575	-144.497	35.2729	46.5948	-151.066	-0.705142	29.5588	-166.867	-5.97543	52.7291	-180.175	12.743	27.4037	
55	0.458333	-191.11	30.7245	34.5661	-180.798	52.7857	13.0971	-163.065	58.0624	-0.426272	-141.414	64.5171	-11.7744	-161.512	24.4139	-21.4499	-149.264	38.2715	-40.6811	-138.362	52.2289	-55.3268	-139.39	32.8648	-12.6832	-134.036	61.2211	-0.767654	-147.607	53.5188	25.5827	-129.432	29.223	3.84577	-132.672	53.4036	23.1842	-150.415	39.9686	35.6861	-117.833	25.3424	18.5527	-127.22	45.4867	27.5997	-147.286	29.2039	42.2155	-154.915	-4.98193	28.5087	-168.296	-9.62066	49.7024	-183.725	-0.356139	29.4718	
56	0.466667	-197.526	22.391	30.1849	-189.192	41.1075	6.69945	-173.506	45.8304	-12.1077	-153.541	48.8207	-22.6738	-173.63	5.97594	-27.0167	-165.176	14.3439	-47.1388	-156.738	23.0903	-64.8901	-148.234	16.9953	-20.4157	-141.568	44.6759	-10.5057	-155.94	39.0029	17.5017	-137.078	14.9865	-2.76051	-138.824	41.3348	11.0242	-157.6	29.5152	27.0846	-127.905	10.5632	10.8639	-132.126	34.6901	15.9922	-150.89	24.3338	35.2078	-155.836	-16.5859	26.8045	-170.061	-17.5473	55.5973	-188.316	-6.99059	27.9574	
57	0.475	-200.85	16.3879	33.9021	-192.907	28.3935	6.66248	-176.109	26.2794	-14.6778	-159.384	25.6296	-26.6005	-184.01	-12.5361	-27.1192	-174.682	-12.3913	-47.161	-168.024	-8.24862	-68.8982	-156.706	-4.19035	-22.1104	-146.705	22.0028	-21.9293	-161.878	25.1049	10.4169	-143.843	0.099841	-9.09869	-144.404	25.429	-0.622659	-158.891	21.8911	20.2257	-133.349	-5.31317	7.44026	-136.376	20.648	12.6833	-154.647	17.0369	30.8244	-164.459	-24.8473	32.4521	-179.158	-20.8914	55.9349	-194.871	-15.7281	34.7805	
58	0.483333	-204.517	17.2831	32.8155	-191.96	21.5531	4.88379	-180.869	17.5406	-14.9826	-162.458	8.48379	-30.5066	-195.289	-25.3563	-18.5428	-188.74	-30.6766	-39.7988	-181.59	-35.4933	-65.4367	-167.162	-22.227	-17.1967	-152.134	5.44706	-20.6969	-164.688	13.9949	7.18097	-152.631	-21.2048	-5.27486	-145.614	6.67466	-2.42939	-159.723	11.0185	17.7353	-140.616	-23.1126	8.52299	-140.325	1.57336	7.48778	-158.744	3.9888	29.0873	-178.035	-32.2307	33.6803	-184.08	-22.7232	62.2799	-201.599	-18.8196	38.2914	
59	0.491667	-201.672	19.4348	33.5559	-188.97	17.5348	4.45403	-179.521	8.24085	-14.9678	-164.594	-6.92141	-27.3371	-208.345	-30.8535	-17.3538	-206.12	-38.7858	-38.6374	-200.604	-47.9131	-53.7471	-176.288	-34.0448	-15.6902	-158.099	-13.9418	-23.0347	-162.266	0.473293	6.65872	-161.437	-34.4106	-3.69989	-151.569	-8.81414	-2.33828	-163.135	-1.05648	22.8016	-153.41	-39.242	14.1556	-145.103	-13.3411	11.6927	-160.036	-7.45956	27.173	-186.168	-37.1849	44.7619	-191.228	-24.6962	66.6848	-210.952	-13.8264	41.1785	
60	0.5	-199.927	19.0278	34.5774	-188.951	13.7215	6.02539	-181.122	-0.624067	-17.4057	-171.688	-17.0237	-25.1364	-217.793	-28.4726	-7.85927	-219.306	-41.0051	-28.7044	-219.33	-54.595	-51.3486	-192.198	-37.4336	-13.6257	-167.031	-27.1281	-20.8342	-169.186	-4.84831	6.98681	-175.272	-44.5063	-0.307818	-155.929	-24.2296	0.00539673	-165.395	-9.95948	19.9405	-167.955	-48.8562	14.8612	-151.912	-30.1729	11.7716	-161.851	-13.9966	29.6408	-199.786	-38.5623	42.6807	-199.117	-21.5667	69.2925	-211.827	-13.8897	45.5103	
61	0.508333	-197.178	16.8681	34.3925	-186.557	11.4912	5.31128	-182.013	-2.16471	-14.8333	-175.978	-24.2068	-28.0264	-226.164	-26.0816	-6.05708	-231.618	-36.6118	-28.0319	-236.786	-43.4386	-49.5681	-201.235	-39.3437	-13.1307	-173.667	-32.455	-16.7513	-173.326	-14.0668	9.33234	-187.303	-51.085	3.04061	-165.743	-33.0665	0.0470901	-169.948	-19.6294	25.2587	-178.705	-58.4558	14.8236	-162.305	-39.0268	12.5904	-171.463	-23.2997	29.2747	-209.592	-40.4033	43.8475	-205.604	-24.7861	67.4058	-219.602	-6.60355	47.0754	
62	0.516667	-192.6	16.0529	37.3565	-185.551	7.74999	5.10197	-183.611	-3.96527	-11.3763	-184.081	-27.1795	-26.067	-234.299	-15.264	-8.79799	-240.746	-21.1653	-27.0707	-247.777	-31.243	-49.8725	-212.639	-34.469	-11.4907	-182.747	-31.6983	-17.9589	-177.298	-20.5208	10.8428	-199.266	-49.1088	0.496002	-176.19	-36.7746	-1.21269	-177.993	-22.6952	26.064	-195.455	-58.2997	14.2182	-173.578	-44.9703	12.7579	-177.798	-26.5001	32.7905	-220.076	-31.9906	47.7147	-211.461	-20.4088	68.0295	-219.871	-3.36212	47.6648	
63	0.525	-189.027	16.342	37.4861	-182.62	10.7836	6.57237	-185.675	-1.40448	-12.8213	-190.397	-22.4383	-26.7699	-235.29	1.71486	-8.78742	-244.636	-2.62404	-30.8407	-252.868	-5.97445	-52.0146	-219.969	-24.9321	-14.3854	-193.51	-28.7447	-21.7557	-183.183	-15.9686	6.81022	-212.977	-38.9998	-0.462283	-184.717	-33.671	-1.40423	-183.365	-23.2485	23.8496	-211.494	-49.2159	11.4919	-185.14	-44.7681	10.5409	-187.513	-23.9713	29.0635	-226.493	-21.5978	43.8777	-217.259	-18.5324	70.6702	-221.605	6.27181	46.1327	
64	0.533333	-186.002	19.8214	37.1811	-175.581	15.9783	7.88748	-183.935	6.07298	-18.8461	-192.148	-11.8599	-28.373	-231.708	20.9562	-12.125	-239.932	21.5521	-34.2745	-244.75	23.1013	-52.5041	-222.426	-5.05858	-18.0987	-195.746	-19.5026	-22.9321	-186.25	-11.9992	6.68314	-218.009	-27.3276	-6.51724	-190.701	-28.2532	-4.0632	-188.867	-15.285	21.9554	-218.036	-34.6071	6.1657	-192.84	-35.3946	7.74031	-190.5	-22.4104	30.1381	-230.761	-8.41538	40.8614	-218.759	-6.34233	65.351	-215.244	17.5168	44.7555	
65	0.541667	-175.73	25.1363	36.4165	-169.848	19.6753	3.77103	-172.897	11.3231	-14.2489	-186.321	-1.9684	-31.6917	-214.47	39.1589	-11.2898	-222.786	39.8363	-36.7938	-229.285	43.4878	-59.0158	-214.613	11.1838	-21.5451	-194.72	-11.0766	-25.0185	-185.222	-9.56712	3.71895	-213.303	-8.20996	-10.544	-189.53	-18.1539	-3.46101	-188.99	-9.4242	22.1544	-216.826	-20.6051	1.14465	-196.174	-28.1665	8.67013	-192.054	-8.74339	27.4182	-226.03	8.54115	38.083	-221.072	7.95256	60.9329	-208.864	29.2217	44.4688	
66	0.55	-162.944	30.2211	36.0226	-154.014	22.7798	6.58563	-162.166	15.3585	-16.4172	-174.869	3.66189	-34.9023	-194.481	50.7518	-14.4342	-199.48	52.9825	-38.8019	-203.016	56.0228	-62.0629	-202.899	21.1021	-24.1316	-184.641	0.332808	-29.8482	-178.088	0.477199	5.28284	-205.929	2.55694	-12.1653	-186.119	-13.6699	-3.25564	-182.399	-1.77071	20.3686	-216.508	-6.37763	0.571222	-193.66	-15.9633	6.52859	-190.865	-4.65385	29.8375	-217.527	26.2909	34.4517	-212.378	22.3181	57.1605	-195.615	42.2205	42.3502	
67	0.558333	-151.849	34.4049	36.9189	-143.586	22.7409	9.34969	-148.954	16.6092	-16.2989	-167.339	6.54139	-31.2639	-179.448	54.0764	-17.6146	-179.107	55.9916	-40.7224	-179.955	58.6135	-63.5933	-189.404	27.1639	-23.2047	-175.156	1.39489	-25.0295	-171.019	2.60479	6.16627	-196.417	10.9119	-12.907	-178.038	-6.41198	0.0111026	-177.179	6.72353	22.7713	-205.805	0.27075	-2.26398	-187.618	-9.97192	10.3	-186.28	8.26885	29.5801	-208.61	38.0232	30.6367	-202.615	34.4901	53.444	-183.109	49.6891	39.2619	
68	0.566667	-143.218	31.7362	39.3177	-133.504	17.7687	11.592	-140.292	11.6496	-9.14966	-154.404	0.754849	-29.6029	-163.07	52.0082	-22.7124	-163.507	51.0887	-47.9939	-164.802	47.4711	-67.431	-177.415	25.6334	-24.9436	-167.967	-1.35074	-23.8439	-161.294	1.19026	7.74711	-186.316	13.5977	-13.1467	-172.182	-7.10528	-0.0732254	-172.218	2.92278	24.5907	-201.139	2.97797	-2.98988	-181.224	-8.19799	9.39084	-176.976	9.01448	27.2307	-197.726	42.1439	23.9182	-197.89	40.9728	52.2113	-173.834	50.2663	35.8197	
69	0.575	-141.643	26.3301	42.1076	-130.523	10.2125	14.0771	-133.095	1.22199	-7.66456	-145.011	-10.4123	-24.9905	-148.674	41.3191	-24.5336	-149.923	33.002	-48.8355	-149.218	24.0444	-67.9075	-167.677	13.7999	-25.3666	-161.23	-11.6276	-19.9357	-156.812	-4.95626	13.7339	-181.938	4.20548	-12.3885	-169.92	-15.6675	0.563872	-165.04	-1.39132	24.9695	-194.586	-1.60887	-3.99618	-176.832	-13.339	9.54268	-172.678	0.585931	29.167	-192.478	40.0994	24.7588	-192.291	39.6643	52.997	-166.338	47.2314	35.0347	
